<svg width="28" height="28" viewBox="0 0 28 28" fill="none" xmlns="http://www.w3.org/2000/svg">
<path d="M19.8529 0H8.14714C3.7769 0 0.234131 3.54277 0.234131 7.91301V20.087C0.234131 24.4572 3.7769 28 8.14714 28H19.8528C24.2231 28 27.7658 24.4572 27.7658 20.087V7.91301C27.7659 3.54277 24.2231 0 19.8529 0ZM3.04348 7.91301C3.04348 5.09873 5.33286 2.80935 8.14714 2.80935H19.8528C22.6671 2.80935 24.9565 5.09873 24.9565 7.91301V20.087C24.9565 22.9013 22.6671 25.1906 19.8528 25.1906H8.14714C5.33286 25.1906 3.04348 22.9013 3.04348 20.087V7.91301Z" fill="#0F131C"></path>
<path d="M14 21.2106C17.976 21.2106 21.2107 17.976 21.2107 14C21.2107 10.0241 17.976 6.78918 14 6.78918C10.0241 6.78918 6.78943 10.0241 6.78943 14C6.78943 17.976 10.0241 21.2106 14 21.2106ZM14 9.03668C16.7368 9.03668 18.9631 11.2632 18.9631 14C18.9631 16.7368 16.7368 18.9633 14 18.9633C11.2634 18.9633 9.03692 16.7368 9.03692 14C9.03692 11.2632 11.2633 9.03668 14 9.03668Z" fill="#0F131C"></path>
<path d="M21.4214 8.19421C22.3136 8.19421 23.0369 7.47092 23.0369 6.57869C23.0369 5.68646 22.3136 4.96317 21.4214 4.96317C20.5293 4.96317 19.806 5.68646 19.806 6.57869C19.806 7.47092 20.5293 8.19421 21.4214 8.19421Z" fill="#0F131C"></path>
</svg>
