<?xml version="1.0" encoding="UTF-8"?><svg id="_レイヤー_2" xmlns="http://www.w3.org/2000/svg" viewBox="0 0 943 186.12"><defs><style>.cls-1 {
  fill: #fff;
}

</style></defs><g id="_レイヤー_1-2"><g><g><path class="cls-1" d="m99.42,54.06c-21.42,0-38.85,17.42-38.85,38.82s17.43,38.82,38.85,38.82,38.85-17.42,38.85-38.82-17.43-38.82-38.85-38.82Zm0,65.09c-14.49,0-26.28-11.78-26.28-26.27s11.79-26.27,26.28-26.27,26.28,11.78,26.28,26.27-11.79,26.27-26.28,26.27Z"></path><path class="cls-1" d="m639.39,54.06c-21.42,0-38.85,17.42-38.85,38.82s17.43,38.82,38.85,38.82,38.85-17.42,38.85-38.82-17.43-38.82-38.85-38.82Zm26.28,38.82c0,14.48-11.79,26.27-26.28,26.27s-26.28-11.78-26.28-26.27,11.79-26.27,26.28-26.27,26.28,11.78,26.28,26.27Z"></path><polygon class="cls-1" points="173.88 65.71 199.02 65.71 199.02 131.71 212.26 131.71 212.26 65.71 236.15 65.71 236.15 54.06 173.88 54.06 173.88 65.71"></polygon><polygon class="cls-1" points="331.27 87.23 295.48 87.23 295.48 54 282.24 54 282.24 131.71 295.48 131.71 295.48 98.96 331.27 98.96 331.27 131.71 344.51 131.71 344.51 54 331.27 54 331.27 87.23"></polygon><polygon class="cls-1" points="767.46 131.71 780.7 131.71 780.7 54.06 767.46 54.06 767.46 107.83 730.95 54.19 718.49 54.19 718.49 131.71 731.74 131.71 731.74 78.05 767.46 131.71"></polygon><path class="cls-1" d="m553.86,93.14c4.17-3.93,6.28-9.89,6.28-17.73,0-7.28-1.7-11.59-6.28-15.91-4.32-4.07-8.14-5.44-15.12-5.44h-40.62v77.65h12.91v-33.12h23.3l12.47,33.12h14.22l-13.45-34.41c2.18-.83,4.14-2.13,6.28-4.15Zm-5.39-18.16c0,4.25-1.06,7.41-3.15,9.4-2,1.9-3.6,2.75-7.77,2.75h-26.5v-21.51h26.19c4.25,0,5.85,0,8.45,2.26,2.11,2.01,2.78,2.86,2.78,7.11Z"></path><polygon class="cls-1" points="389.72 91.21 389.71 91.21 389.71 93.56 389.71 96 389.72 96 389.83 131.71 451.92 131.71 451.92 120.13 402.71 120.13 402.71 98.62 440.69 98.62 440.69 87.11 402.71 87.11 402.71 65.6 451.92 65.6 451.92 54.03 389.83 54.03 389.72 91.21"></polygon><polygon class="cls-1" points="886.3 65.6 886.3 54.03 824.21 54.03 824.1 91.21 824.08 91.21 824.09 93.56 824.09 96 824.1 96 824.21 131.71 886.3 131.71 886.3 120.13 837.09 120.13 837.09 98.62 875.07 98.62 875.07 87.11 837.09 87.11 837.09 65.6 886.3 65.6"></polygon></g><path class="cls-1" d="m0,0v186.12h943V0H0Zm12.28,173.72V12.4h918.44v161.33H12.28Z"></path></g></g></svg>