<svg width="640" height="126" fill="none" xmlns="http://www.w3.org/2000/svg"><g clip-path="url('#a')" fill="#0F131C"><path d="M66.367 36.598C51.829 36.598 40 48.39 40 62.878c0 14.488 11.83 26.28 26.367 26.28s26.367-11.792 26.367-26.28c0-14.487-11.83-26.28-26.367-26.28Zm0 44.064c-9.834 0-17.836-7.974-17.836-17.784 0-9.81 8.002-17.784 17.836-17.784 9.834 0 17.836 7.975 17.836 17.784 0 9.81-8.002 17.784-17.836 17.784ZM432.836 36.598c-14.537 0-26.366 11.793-26.366 26.28 0 14.488 11.829 26.28 26.366 26.28 14.538 0 26.367-11.792 26.367-26.28 0-14.487-11.829-26.28-26.367-26.28Zm17.836 26.28c0 9.803-8.001 17.784-17.836 17.784-9.834 0-17.835-7.974-17.835-17.784 0-9.81 8.001-17.784 17.835-17.784 9.835 0 17.836 7.975 17.836 17.784ZM116.902 44.484h17.062v44.681h8.986v-44.68h16.214v-7.887h-42.262v7.886ZM223.72 59.053h-24.29V36.557h-8.986v52.608h8.986v-22.17h24.29v22.17h8.986V36.557h-8.986v22.496ZM519.756 89.165h8.986V36.598h-8.986v36.401l-24.779-36.313h-8.456v52.48h8.992V52.838l24.243 36.326ZM374.789 63.054c2.83-2.66 4.262-6.695 4.262-12.003 0-4.928-1.154-7.846-4.262-10.77-2.932-2.756-5.525-3.683-10.262-3.683h-27.568v52.567h8.762V66.744h15.813l8.463 22.421h9.651L370.52 65.87c1.479-.562 2.809-1.442 4.262-2.81l.007-.006ZM371.13 50.76c0 2.877-.719 5.017-2.137 6.364-1.358 1.286-2.444 1.861-5.274 1.861h-17.985V44.425h17.775c2.884 0 3.97 0 5.735 1.53 1.432 1.36 1.886 1.936 1.886 4.813v-.007ZM263.389 61.748h-.007v3.242h.007l.075 24.175h42.139v-7.84h-33.398V66.765h25.777v-7.792h-25.777V44.41h33.398v-7.833h-42.139l-.075 25.17ZM600.411 44.41v-7.833h-42.14l-.075 25.17h-.013l.007 1.592v1.651h.006l.075 24.175h42.14v-7.84h-33.399V66.765h25.777v-7.792h-25.777V44.41h33.399Z"></path><path d="M0 0v126h640V0H0Zm8.334 117.605V8.395h623.332v109.217H8.334v-.007Z"></path></g><defs><clipPath id="a"><path fill="#fff" d="M0 0h640v126H0z"></path></clipPath></defs></svg>